<?xml version="1.0" encoding="UTF-8" standalone="no"?>
<svg
   id="Capa_1"
   data-name="Capa 1"
   viewBox="0 0 552.8 552.8"
   version="1.1"
   sodipodi:docname="0-2.svg"
   inkscape:export-filename="0"
   inkscape:export-xdpi="88.910004"
   inkscape:export-ydpi="88.910004"
   inkscape:version="1.2.1 (9c6d41e410, 2022-07-14)"
   xmlns:inkscape="http://www.inkscape.org/namespaces/inkscape"
   xmlns:sodipodi="http://sodipodi.sourceforge.net/DTD/sodipodi-0.dtd"
   xmlns="http://www.w3.org/2000/svg"
   xmlns:svg="http://www.w3.org/2000/svg">
  <sodipodi:namedview
     id="namedview21"
     pagecolor="#ffffff"
     bordercolor="#000000"
     borderopacity="0.25"
     inkscape:showpageshadow="2"
     inkscape:pageopacity="0.0"
     inkscape:pagecheckerboard="0"
     inkscape:deskcolor="#d1d1d1"
     showgrid="false"
     inkscape:zoom="1"
     inkscape:cx="255.5"
     inkscape:cy="281.5"
     inkscape:window-width="930"
     inkscape:window-height="1026"
     inkscape:window-x="20"
     inkscape:window-y="34"
     inkscape:window-maximized="1"
     inkscape:current-layer="Capa_1" />
  <defs
     id="defs4">
    <style
       id="style2">.cls-1{fill:#9d9d9c;}.cls-2{fill:#b2b2b2;}.cls-3{fill:#dadada;}.cls-4{fill:#c6c6c6;}.cls-5{fill:#b3b3b3;}</style>
  </defs>
  <rect
     class="cls-1"
     width="552.8"
     height="552.8"
     id="rect6" />
  <circle
     style="display:none;fill:#c7c6c6;fill-opacity:0.358664"
     id="path912"
     cx="276.39999"
     cy="276.39999"
     r="276.39999" />
  <path
     class="cls-2"
     d="M 515.10507,276.44169 A 136.83709,136.83709 0 0 1 378.31431,413.23245 v -119.2599 c 0.38916,0 0.77833,0.0463 1.17675,0.0463 a 15.12176,15.12176 0 0 0 0,-30.24352 c -0.39842,0 -0.78759,0 -1.17675,0.0463 V 139.56754 a 136.83709,136.83709 0 0 1 136.79076,136.87415 z"
     id="path8"
     style="stroke:#000000;stroke-width:5;stroke-dasharray:none;stroke-opacity:1" />
  <path
     class="cls-5"
     d="M 378.31431,169.99028 V 235.87 c 1.14896,-0.0927 2.30718,-0.14825 3.47467,-0.14825 a 44.614747,44.614747 0 1 1 0,89.22023 c -1.16749,0 -2.32571,-0.0556 -3.47467,-0.14826 v 58.92112 a 106.86228,106.86228 0 0 0 0,-213.72456 z"
     id="path18"
     style="fill:#cccccc;fill-opacity:1;stroke-width:0.926578" />
  <rect
     class="cls-3"
     x="76.448822"
     y="122.62505"
     width="302.99112"
     height="307.5499"
     id="rect10"
     style="stroke-width:5;stroke:#000000;stroke-opacity:1;stroke-dasharray:none" />
  <circle
     class="cls-4"
     cx="215.29659"
     cy="210.08478"
     id="circle12"
     r="12.054785"
     style="stroke-width:5;stroke:none;stroke-opacity:1;stroke-dasharray:none;fill:#999999" />
  <path
     class="cls-4"
     d="m 283.71514,282.432 h -25.27706 c 0,-13.3242 -11.32279,-24.09104 -25.27706,-24.09104 v -24.09104 c 27.91781,-0.0463 50.55412,21.55221 50.55412,48.18208 z"
     id="path14"
     style="stroke-width:5;stroke:none;stroke-opacity:1;stroke-dasharray:none;fill:#999999" />
  <path
     class="cls-4"
     d="m 227.35138,234.20359 v 84.40202 A 36.201415,36.201415 0 0 1 179.1693,352.71296 V 330.6604 h 12.04552 a 12.045518,12.045518 0 0 0 12.04552,-12.04552 v -84.41129 z"
     id="path16"
     style="stroke-width:5;stroke:none;stroke-opacity:1;stroke-dasharray:none;fill:#999999" />
</svg>
