<svg id="Capa_1" data-name="Capa 1" xmlns="http://www.w3.org/2000/svg" viewBox="0 0 552.8 552.8"><defs><style>.cls-1{fill:#9d9d9c;}.cls-2{fill:#b2b2b2;}.cls-3{fill:#dadada;}.cls-4{fill:#c6c6c6;}.cls-5{fill:#b3b3b3;}</style></defs><rect class="cls-1" width="552.8" height="552.8"/><path class="cls-2" d="M535,421A147.68,147.68,0,0,1,387.37,568.63V439.92c.42,0,.84.05,1.27.05a16.32,16.32,0,0,0,0-32.64c-.43,0-.85,0-1.27.05V273.28A147.68,147.68,0,0,1,535,421Z" transform="translate(-21.24 -144.55)"/><rect class="cls-3" x="39" y="110.44" width="327" height="331.92"/><circle class="cls-4" cx="188.85" cy="204.83" r="13.01"/><path class="cls-4" d="M283.93,427.46H256.65c0-14.38-12.22-26-27.28-26v-26C259.5,375.41,283.93,398.72,283.93,427.46Z" transform="translate(-21.24 -144.55)"/><path class="cls-4" d="M223.1,375.41V466.5a39.07,39.07,0,0,1-52,36.81v-23.8h13a13,13,0,0,0,13-13V375.41Z" transform="translate(-21.24 -144.55)"/><path class="cls-5" d="M387.37,305.62v71.1c1.24-.1,2.49-.16,3.75-.16a48.15,48.15,0,1,1,0,96.29c-1.26,0-2.51-.06-3.75-.16v63.59a115.33,115.33,0,0,0,0-230.66Z" transform="translate(-21.24 -144.55)"/></svg>
