<?xml version="1.0" encoding="UTF-8"?>
<!-- Generator: Adobe Illustrator 25.3.0, SVG Export Plug-In . SVG Version: 6.00 Build 0)  -->
<svg width="351.7" height="351.7" version="1.1" viewBox="0 0 351.7 351.7" xml:space="preserve" xmlns="http://www.w3.org/2000/svg">
<style type="text/css">
	.st0{display:none;fill:#FFFFFF;}
	.st1{display:none;fill:#001C31;}
	.st2{fill:#EA7B28;}
	.st3{fill:#F09B4E;}
	.st4{fill:#FBA700;}
</style>
<circle class="st0" cx="117.5" cy="175.5" r="105.7"/>
<circle class="st1" cx="117.5" cy="175.5" r="105.7"/>
<circle class="st2" cx="139.6" cy="27.1" r="27.1"/>
<path class="st3" d="m293.2 189.4h-56.7c0-29.9-25.4-54.1-56.7-54.1v-54.1c62.6 0 113.4 48.5 113.4 108.2z"/>
<path class="st2" d="m166.7 81.2v189.4c0 7.9-1.1 15.5-3.2 22.7-9.8 33.8-41 58.4-77.9 58.4-9.5 0-18.6-1.6-27.1-4.6v-49.5h27.1c15 0 27.1-12.1 27.1-27.1v-189.3z"/>
<circle class="st4" cx="139.6" cy="27.1" r="27.1"/>
<path class="st4" d="m293.2 189.4h-56.7c0-29.9-25.4-54.1-56.7-54.1v-54.1c62.6 0 113.4 48.5 113.4 108.2z"/>
<path class="st4" d="m166.7 81.2v189.4c0 7.9-1.1 15.5-3.2 22.7-9.8 33.8-41 58.4-77.9 58.4-9.5 0-18.6-1.6-27.1-4.6v-49.5h27.1c15 0 27.1-12.1 27.1-27.1v-189.3z"/>
</svg>
