<?xml version="1.0" encoding="UTF-8"?>
<!-- Created with Inkscape (http://www.inkscape.org/) -->
<svg width="512" height="512" version="1.1" viewBox="0 0 135.47 135.47" xmlns="http://www.w3.org/2000/svg">
 <g transform="translate(-42.806 -8.1396)">
  <path d="m74.902 126.29c-1.3353-0.48429-2.715-1.7206-3.2604-2.9216-1.2345-2.7186-0.22023-10.557 2.1617-16.704 5.4278-14.009 18.735-23.878 33.645-24.952 5.2747-0.38013 10.583 0.21577 15.199 1.7063 15.449 4.9881 26.42 19.167 27.246 35.212 0.13918 2.7043 0.0917 3.4265-0.29113 4.429-0.53821 1.4093-2.0876 2.8384-3.5533 3.2776-1.4833 0.44441-69.917 0.40005-71.147-0.0461zm33.369-56.311c-11.275-0.95069-20.203-10.82-20.203-22.333 0-14.732 13.837-25.477 28.107-21.827 9.4793 2.4244 16.276 10.7 16.795 20.452 0.34223 6.4236-1.706 12.149-5.9597 16.658-4.9599 5.2577-11.376 7.6717-18.739 7.0508z" stroke-width=".26458"/>
 </g>
</svg>
