<?xml version="1.0" encoding="UTF-8" standalone="no"?>
<!-- Created with Inkscape (http://www.inkscape.org/) -->

<svg
   width="100"
   height="100"
   viewBox="0 0 26.458333 26.458333"
   version="1.1"
   id="svg5"
   xml:space="preserve"
   inkscape:version="1.2 (dc2aedaf03, 2022-05-15)"
   sodipodi:docname="editIcon.svg"
   xmlns:inkscape="http://www.inkscape.org/namespaces/inkscape"
   xmlns:sodipodi="http://sodipodi.sourceforge.net/DTD/sodipodi-0.dtd"
   xmlns="http://www.w3.org/2000/svg"
   xmlns:svg="http://www.w3.org/2000/svg"><sodipodi:namedview
     id="namedview7"
     pagecolor="#ffffff"
     bordercolor="#666666"
     borderopacity="1.0"
     inkscape:showpageshadow="2"
     inkscape:pageopacity="0.0"
     inkscape:pagecheckerboard="0"
     inkscape:deskcolor="#d1d1d1"
     inkscape:document-units="mm"
     showgrid="false"
     inkscape:zoom="5.946522"
     inkscape:cx="46.24552"
     inkscape:cy="54.149299"
     inkscape:window-width="1366"
     inkscape:window-height="745"
     inkscape:window-x="-8"
     inkscape:window-y="-8"
     inkscape:window-maximized="1"
     inkscape:current-layer="layer1" /><defs
     id="defs2" /><g
     inkscape:label="Capa 1"
     inkscape:groupmode="layer"
     id="layer1"><path
       style="fill:#ffffff;stroke-width:0.142491;fill-opacity:1"
       d="m 3.6797142,21.038377 c -0.009,-0.960035 -0.0045,-1.873762 0.01011,-2.030501 0.02549,-0.273907 11.4890478,-11.8980266 11.7336738,-11.8980266 0.0636,0 0.981157,0.874072 2.039014,1.942377 l 1.923377,1.9423826 -1.285233,1.310577 c -0.706879,0.720817 -3.349592,3.373407 -5.872687,5.894644 l -4.5874528,4.584068 h -1.972201 -1.9722 z M 18.544199,7.9070704 c -1.034748,-1.053 -1.881365,-1.972919 -1.881365,-2.04426 0,-0.07134 0.474075,-0.589395 1.053495,-1.151232 1.50954,-1.463719 1.58498,-1.452808 3.544278,0.512587 1.941995,1.948032 1.945727,1.975541 0.468856,3.454393 -0.583271,0.584058 -1.115261,1.080175 -1.182198,1.102488 -0.06694,0.0223 -0.968312,-0.820977 -2.003066,-1.873976 z"
       id="path302"
       sodipodi:nodetypes="sssscsscccsssssscs" /></g></svg>
