<?xml version="1.0" encoding="UTF-8" standalone="no"?>
<!-- Created with Inkscape (http://www.inkscape.org/) -->

<svg
   width="100"
   height="100"
   viewBox="0 0 26.458333 26.458333"
   version="1.1"
   id="svg5"
   xml:space="preserve"
   inkscape:export-filename="options.png"
   inkscape:export-xdpi="96"
   inkscape:export-ydpi="96"
   inkscape:version="1.2 (dc2aedaf03, 2022-05-15)"
   sodipodi:docname="options.svg"
   xmlns:inkscape="http://www.inkscape.org/namespaces/inkscape"
   xmlns:sodipodi="http://sodipodi.sourceforge.net/DTD/sodipodi-0.dtd"
   xmlns="http://www.w3.org/2000/svg"
   xmlns:svg="http://www.w3.org/2000/svg"><sodipodi:namedview
     id="namedview7"
     pagecolor="#ffffff"
     bordercolor="#666666"
     borderopacity="1.0"
     inkscape:showpageshadow="2"
     inkscape:pageopacity="0.0"
     inkscape:pagecheckerboard="0"
     inkscape:deskcolor="#d1d1d1"
     inkscape:document-units="mm"
     showgrid="false"
     inkscape:zoom="4.204826"
     inkscape:cx="48.277859"
     inkscape:cy="49.466969"
     inkscape:window-width="1366"
     inkscape:window-height="745"
     inkscape:window-x="-8"
     inkscape:window-y="-8"
     inkscape:window-maximized="1"
     inkscape:current-layer="layer1" /><defs
     id="defs2" /><g
     inkscape:label="Capa 1"
     inkscape:groupmode="layer"
     id="layer1"><path
       style="fill:#000000;stroke-width:0.117505"
       d="M 10.761553,22.75583 C 10.16679,22.478276 9.3907128,21.730826 9.1509758,21.20466 L 9.0200018,20.917205 H 5.9746835 2.9293648 L 2.5858876,20.573728 C 2.380614,20.368455 2.2424099,20.106065 2.2424099,19.921612 c 0,-0.391087 0.2858689,-0.95128 0.534039,-1.046512 0.1046175,-0.04014 1.5326399,-0.07299 3.1733819,-0.07299 h 2.983167 l 0.415209,-0.649077 c 0.437806,-0.684401 1.2010842,-1.262091 1.9380632,-1.466834 1.394767,-0.387481 2.944694,0.278356 3.717472,1.597002 l 0.3041,0.518909 h 4.091914 c 2.250554,0 4.177511,0.03284 4.282128,0.07299 0.248171,0.09523 0.534039,0.655425 0.534039,1.046512 0,0.184453 -0.138203,0.446843 -0.343477,0.652116 l -0.343477,0.343477 h -4.151306 -4.151308 l -0.283312,0.53405 c -0.7408,1.39642 -2.684928,2.002966 -4.18149,1.304575 z m 1.945348,-1.959613 c 0.338021,-0.180904 0.607919,-0.781595 0.523623,-1.165392 -0.190068,-0.865372 -1.337702,-1.201745 -1.893916,-0.555107 -0.817709,0.950645 0.2661,2.311445 1.370293,1.720499 z m 6.867558,-4.62069 C 18.962652,15.890018 18.174323,15.120377 17.9858,14.624522 L 17.876452,14.336901 H 10.52362 c -7.8736878,0 -7.8482974,0.0018 -8.1602167,-0.581018 -0.1549237,-0.289478 -0.1549237,-0.781088 0,-1.070566 0.3119193,-0.582826 0.2865289,-0.581018 8.1602167,-0.581018 h 7.352832 L 17.9858,11.816678 c 0.188523,-0.495853 0.976852,-1.265498 1.588659,-1.551005 0.412963,-0.192714 0.801343,-0.2745177 1.307163,-0.2753247 1.331455,-0.0021 2.315534,0.5571597 2.92903,1.6646617 0.302683,0.546413 0.346519,0.744466 0.346519,1.56559 0,0.821124 -0.04384,1.019177 -0.346519,1.56559 -0.613496,1.107502 -1.597575,1.666786 -2.92903,1.664661 -0.50582,-8.43e-4 -0.8942,-0.08261 -1.307163,-0.275324 z m 1.934888,-2.01284 c 0.483474,-0.250014 0.667523,-0.863823 0.417194,-1.391354 -0.334281,-0.704446 -1.096974,-0.867533 -1.696785,-0.362826 -0.301021,0.253292 -0.361533,0.389216 -0.361533,0.812093 0,0.422877 0.06051,0.558801 0.361533,0.812093 0.409694,0.344735 0.789678,0.383338 1.279591,0.129994 z M 6.6104098,9.6550333 C 5.9089083,9.4046883 5.1597619,8.7473193 4.8151845,8.0797373 L 4.5877422,7.6390919 H 3.7772029 c -0.9886794,0 -1.1435996,-0.054379 -1.3628806,-0.4784255 C 2.1493389,6.6482452 2.2019918,6.2513676 2.5858876,5.8674719 2.9042003,5.5491592 2.9936606,5.5239947 3.8069559,5.5239947 c 0.815159,0 0.8823678,-0.01903 0.9447388,-0.2675389 C 4.8652996,4.8038178 5.6192378,4.0328079 6.2609446,3.7130321 6.7466029,3.4710183 7.0405609,3.4094239 7.7001076,3.4114774 9.0038358,3.4155374 10.049264,4.0186761 10.59798,5.0833492 l 0.227102,0.4406455 h 6.351943 6.351944 l 0.343477,0.3434772 c 0.205274,0.2052736 0.343477,0.4676633 0.343477,0.6521154 0,0.3910873 -0.285868,0.9512809 -0.534039,1.0465129 -0.104623,0.040143 -3.032783,0.072987 -6.507035,0.072987 H 10.858028 L 10.714219,7.9547153 C 10.027421,9.4620743 8.1960038,10.220878 6.6104098,9.6550283 Z M 8.2375388,7.5791232 C 8.9227748,7.224774 9.0358388,6.4240746 8.4792368,5.8674719 7.5687123,4.9569478 6.1305906,6.0312087 6.7540903,7.1561364 6.9272285,7.4685149 7.359539,7.7460678 7.6828715,7.7524342 c 0.1163083,0.00226 0.3659083,-0.075701 0.5546673,-0.173311 z"
       id="path248" /></g></svg>
