<?xml version="1.0" encoding="UTF-8" standalone="no"?>
<!-- Created with Inkscape (http://www.inkscape.org/) -->

<svg
   width="100"
   height="100"
   viewBox="0 0 26.458333 26.458333"
   version="1.1"
   id="svg5"
   xml:space="preserve"
   inkscape:version="1.2 (dc2aedaf03, 2022-05-15)"
   sodipodi:docname="trash.svg"
   xmlns:inkscape="http://www.inkscape.org/namespaces/inkscape"
   xmlns:sodipodi="http://sodipodi.sourceforge.net/DTD/sodipodi-0.dtd"
   xmlns="http://www.w3.org/2000/svg"
   xmlns:svg="http://www.w3.org/2000/svg"><sodipodi:namedview
     id="namedview7"
     pagecolor="#ffffff"
     bordercolor="#666666"
     borderopacity="1.0"
     inkscape:showpageshadow="2"
     inkscape:pageopacity="0.0"
     inkscape:pagecheckerboard="0"
     inkscape:deskcolor="#d1d1d1"
     inkscape:document-units="mm"
     showgrid="false"
     inkscape:zoom="2.102413"
     inkscape:cx="-16.647538"
     inkscape:cy="34.246363"
     inkscape:window-width="1366"
     inkscape:window-height="745"
     inkscape:window-x="-8"
     inkscape:window-y="-8"
     inkscape:window-maximized="1"
     inkscape:current-layer="layer1" /><defs
     id="defs2" /><g
     inkscape:label="Capa 1"
     inkscape:groupmode="layer"
     id="layer1"><path
       style="fill:#ffffff;stroke-width:0.119357;fill-opacity:1"
       d="M 7.6123904,23.210652 C 7.3864816,23.058575 7.1372068,22.800195 7.0584469,22.636473 6.9769521,22.467067 6.6460894,19.06542 6.2906103,14.742235 5.7715405,8.4295337 5.6924367,7.1137868 5.8225561,6.9570031 5.9626824,6.788161 6.7444584,6.7715645 13.261404,6.7990838 c 6.723585,0.028393 7.292151,0.046424 7.411116,0.2350439 0.09483,0.1503613 -0.02313,2.0724523 -0.446831,7.2807913 -0.728942,8.960425 -0.628699,8.168192 -1.098396,8.680829 l -0.389164,0.424742 -5.357497,0.03333 -5.3574979,0.03333 z m 2.7283516,-2.022141 c 0.206411,-0.206411 0.206411,-11.920286 0,-12.126696 -0.211789,-0.2117885 -1.2345116,-0.1807243 -1.4595688,0.04433 -0.1654303,0.16543 -0.187561,0.880867 -0.187561,6.063347 0,4.410913 0.03571,5.911495 0.1432287,6.019016 0.078776,0.07877 0.4171532,0.143228 0.7519501,0.143228 0.3347974,0 0.673175,-0.06445 0.751951,-0.143228 z m 3.719746,-0.08764 c 0.0803,-0.150042 0.123557,-2.257354 0.123557,-6.019018 0,-5.102809 -0.02221,-5.810355 -0.187562,-5.975708 -0.225057,-0.2250573 -1.247779,-0.2561215 -1.459568,-0.04433 -0.107591,0.107591 -0.143228,1.632098 -0.143228,6.127004 0,3.291078 0.0358,6.019584 0.07957,6.063348 0.04376,0.04376 0.390993,0.07957 0.77162,0.07957 0.562056,0 0.715262,-0.04337 0.81561,-0.230868 z m 3.561045,0.08764 c 0.107562,-0.107563 0.143228,-1.622326 0.143228,-6.083021 0,-5.75034 -0.0073,-5.943732 -0.230867,-6.0633471 -0.297055,-0.1589789 -1.031568,-0.1589789 -1.328623,0 -0.223504,0.1196151 -0.230868,0.3130071 -0.230868,6.0633471 0,4.460695 0.03567,5.975458 0.143229,6.083021 0.07877,0.07877 0.417154,0.143228 0.75195,0.143228 0.334797,0 0.673175,-0.06445 0.751951,-0.143228 z M 5.2561239,5.7914265 c -0.1841087,-0.1841087 -0.1841087,-0.6036491 0,-0.7877577 C 5.3585583,4.9012343 6.1234531,4.8604401 7.9416617,4.8604401 H 10.48397 V 4.0395539 c 0,-0.5514363 0.05395,-0.8656543 0.164339,-0.9572742 0.114739,-0.095226 0.934259,-0.1266534 2.715376,-0.1041324 l 2.55104,0.032254 0.05968,0.8951793 0.05968,0.8951793 2.497266,0.032322 c 1.596392,0.020661 2.554421,0.079757 2.6557,0.163811 0.197396,0.1638252 0.205818,0.6039158 0.0152,0.7945304 -0.207066,0.2070671 -15.7390598,0.2070671 -15.9461265,0 z M 15.138902,4.3830113 V 3.905582 h -1.909715 -1.909716 v 0.3978577 c 0,0.2188215 0.03581,0.4336645 0.07957,0.4774288 0.04376,0.043762 0.903136,0.079572 1.909716,0.079572 H 15.1389 Z"
       id="path3101"
       sodipodi:nodetypes="sssssssscccscsssssccssssssssssssssssscsscssscccsssccccccssscc" /></g></svg>
